<svg xmlns="http://www.w3.org/2000/svg" data-name="Layer 1" viewBox="0 0 512 512" id="pill-reminder"><circle cx="345.5" cy="118.5" r="68" fill="#79ed97"></circle><path fill="#4fe777" d="M345.5 50.5a68.169 68.169 0 0 0-15 1.68 67.993 67.993 0 0 1 0 132.64 67.998 67.998 0 1 0 15-134.32Z"></path><circle cx="75.5" cy="118.5" r="68" fill="#79ed97"></circle><path fill="#4fe777" d="M75.5 50.5a68.17 68.17 0 0 0-15 1.68 67.993 67.993 0 0 1 0 132.64 67.998 67.998 0 1 0 15-134.32Z"></path><circle cx="210.5" cy="262.5" r="197" fill="#63ea86"></circle><path fill="#3ce568" d="M407.5 262.5q0 7.35-.53 14.56A196.835 196.835 0 0 1 210.5 459.5q-7.575 0-15-.56a196.962 196.962 0 0 0 181.27-179.37q.72-8.445.73-17.07c0-103.75-80.21-188.77-182-196.44q7.425-.555 15-.56c108.8 0 197 88.2 197 197Z"></path><circle cx="210.5" cy="262.5" r="167" fill="#fff"></circle><path fill="#fff" d="M377.5 262.5a166.613 166.613 0 0 1-.87 17.1c-6.21 60.82-45.21 112.09-98.98 135.8a166.133 166.133 0 0 1-67.15 14.1c-92.08 0-167-74.... 210.5 73 400 158.01 400 262.5a191.6 191.6 0 0 1-2.398 30.187 109.565 109.565 0 0 0-15.54 1.77A175.13 175.13 0 0 0 385 262.5C385 166.28 306.72 88 210.5 88S36 166.28 36 262.5 114.28 437 210.5 437a173.855 173.855 0 0 0 82.934-21.019 108.876 108.876 0 0 0 3.073 15.415A189.854 189.854 0 0 1 210.5 452Zm82.128-52.842A158.827 158.827 0 0 1 210.5 422C122.551 422 51 350.448 51 262.5 51 174.551 122.551 103 210.5 103S370 174.551 370 262.5a159.721 159.721 0 0 1-4.19 36.324 109.915 109.915 0 0 0-73.182 100.334ZM402.29 497A94.71 94.71 0 1 1 497 402.29 94.817 94.817 0 0 1 402.29 497ZM267.373 253H231.71a22.497 22.497 0 0 0-28.886-13.65l-46.53-56.612a7.5 7.5 0 0 0-11.588 9.524l46.535 56.617A22.496 22.496 0 1 0 231.71 268h35.663a7.5 7.5 0 0 0 0-15ZM210.5 268a7.5 7.5 0 1 1 7.5-7.5 7.508 7.508 0 0 1-7.5 7.5Zm137 2a7.5 7.5 0 0 0 0-15h-22a7.5 7.5 0 0 0 0 15Zm-137 100a7.5 7.5 0 0 0-7.5 7.5v22a7.5 7.5 0 0 0 15 0v-22a7.5 7.5 0 0 0-7.5-7.5Zm-115-115h-22a7.5 7.5 0 0 0 0 15h22a7.5 7.5 0 0 0 0-15Z"></path></svg>